# xmcd
#
# Track frame offsets: 
#        150
#        22487
#        40532
#        57921
#        79102
#        91140
#        113122
#        127239
#        136837
#        149177
#        157490
#        166790
#        179761
#
# Disc length: 2562 seconds
#
# Revision: 0
# Processed by: cddbd v1.5.2PL0 Copyright (c) Steve Scherf et al.
# Submitted via: ExactAudioCopyFreeDBPlugin 1.0
#
DISCID=c10a000d
DTITLE=Backroom Bluegrass Band - Ghosts Along the Line
DYEAR=2005
DGENRE=Trains
TTITLE0=Ghosts Along the Line
TTITLE1=City of New Orleans
TTITLE2=Two-Ten, Six-Eighteen
TTITLE3=Life Is Like a Mountain Railroad
TTITLE4=Southern Pacific
TTITLE5=Wabash Cannonball
TTITLE6=Chattanooga Choo Choo
TTITLE7=Wreck of Old 97
TTITLE8=New River Train
TTITLE9=Flint Hill Special
TTITLE10=End of My Railroad Days
TTITLE11=Dream of the Steam Engine Days
TTITLE12=Long Journey Home
EXTD=CD Baby id:backroombb3Barcode: 634479095542
EXTT0=
EXTT1=
EXTT2=
EXTT3=
EXTT4=
EXTT5=
EXTT6=
EXTT7=
EXTT8=
EXTT9=
EXTT10=
EXTT11=
EXTT12=
PLAYORDER=
